<?xml version="1.0" encoding="utf-8"?>
<!-- Generator: Adobe Illustrator 23.0.5, SVG Export Plug-In . SVG Version: 6.00 Build 0)  -->
<svg version="1.1" xmlns="http://www.w3.org/2000/svg" xmlns:xlink="http://www.w3.org/1999/xlink" x="0px" y="0px"
	 viewBox="0 0 200 200" style="enable-background:new 0 0 200 200;" xml:space="preserve">
<style type="text/css">
	.st0{fill:#FFFFFF;}
	.st1{display:none;}
	.st2{display:inline;}
</style>
<g id="Capa_1">
	<g>
		<g>
			<g>
				<g>
					<path class="st0" d="M161.1,117.8c-3.7-9.8-7.3-19-10.8-27.8c-3.5-8.7-6.9-17.1-10.4-25c-3.4-7.9-7-15.7-10.6-23.4h-18.8
						c-2.4,5.1-4.7,10.2-7.1,15.4c0.8,1.8,1.6,3.6,2.4,5.4c2.3,5.3,4.6,10.8,7,16.6c2.5-6.3,4.7-11.8,6.7-16.4c2.3,5.3,5,12,8.1,20
						c3.1,8,6.3,16.6,9.7,25.9h-12.9c0.9,2.3,1.8,4.6,2.7,7c1.1,2.9,2.2,5.9,3.3,8.9h12c1.5,4.4,3,8.6,4.5,12.8
						c1.6,4.2,3.1,8.4,4.5,12.6h21.2C168.7,138.3,164.8,127.6,161.1,117.8z"/>
				</g>
			</g>
			<g>
				<path class="st0" d="M111.3,149.8c-1.5-4.3-3-8.5-4.5-12.6c-1.6-4.2-3.1-8.4-4.5-12.8H56.6c-1.5,4.4-2.9,8.7-4.5,12.9
					c-1.5,4.2-3,8.4-4.5,12.6H27.2c4.1-11.5,7.9-22.2,11.5-32c3.6-9.8,7.2-19,10.7-27.8c3.5-8.7,6.9-17.1,10.4-25
					c3.4-7.9,7-15.7,10.6-23.4h18.8c3.6,7.7,7.2,15.5,10.6,23.4c3.4,7.9,6.9,16.2,10.4,25c3.5,8.7,7.1,18,10.8,27.8
					c3.7,9.8,7.6,20.4,11.6,32H111.3z M79.4,62.6c-2.4,5.5-5.1,12.2-8.2,20.1c-3.1,7.9-6.3,16.5-9.6,25.7h35.6
					c-3.3-9.3-6.6-17.9-9.7-25.9C84.4,74.6,81.7,67.9,79.4,62.6z"/>
			</g>
		</g>
	</g>
</g>
<g id="Capa_2" class="st1">
</g>
</svg>
