<?xml version="1.0" encoding="utf-8"?>
<!-- Generator: Adobe Illustrator 23.0.5, SVG Export Plug-In . SVG Version: 6.00 Build 0)  -->
<svg version="1.1" xmlns="http://www.w3.org/2000/svg" xmlns:xlink="http://www.w3.org/1999/xlink" x="0px" y="0px"
	 viewBox="0 0 2455 566" style="enable-background:new 0 0 2455 566;" xml:space="preserve">
<style type="text/css">
	.st0{fill:#FFFFFF;}
	.st1{display:none;}
	.st2{display:inline;}
</style>
<g id="Capa_1">
	<g>
		<g>
			<polygon class="st0" points="507.2,5 452.1,267 380.5,5 273.3,5 201.8,267 146.6,5 0,5 131.9,561 258.1,561 328.3,301.7 
				395.4,561 521.9,561 653.8,5 			"/>
		</g>
		<g>
			<path class="st0" d="M1034.5,102.5c-17.3-32.3-42.1-57.8-73.7-75.7C929.7,9.2,893.2,0.3,852.5,0.3c-40.7,0-77.2,8.9-108.3,26.5
				c-31.6,17.9-56.4,43.3-73.7,75.7c-16.9,31.6-25.5,68.8-25.5,110.4v140.4c0,41.4,8.6,78.4,25.5,110.2c17.3,32.5,42.1,58,73.7,75.9
				c31.1,17.6,67.6,26.5,108.3,26.5c40.7,0,77.2-8.9,108.3-26.5c31.6-17.9,56.4-43.4,73.7-75.9c16.9-31.7,25.5-68.8,25.5-110.2
				V212.9C1060,171.3,1051.4,134.1,1034.5,102.5z M909.6,420.3c-13.9,13.4-31.9,19.6-56.6,19.6c-24.5,0-42.4-6.3-56.5-19.7
				c-14.5-13.8-21.5-32.5-21.5-57V203c0-24.8,7-43.5,21.4-57.1c14.1-13.4,32.1-19.6,56.6-19.6c24.8,0,42.8,6.2,56.7,19.5
				C924,159.4,931,178.2,931,203v160.2C931,387.8,924,406.5,909.6,420.3z"/>
		</g>
		<g>
			<path class="st0" d="M1422.1,335c0.5-0.3,1-0.6,1.5-0.9c25.6-14.9,46-36,60.4-62.6c14.2-26.2,21.3-56.8,21.3-91
				c0-34.2-7.1-64.8-21.1-90.9c-14.3-26.7-34.7-47.8-60.6-62.6c-25.5-14.6-55.4-22-88.7-22H1098v556h141V356h31.9l108.4,205H1547
				L1422.1,335z M1321.8,113c16,0,28.9,6.2,38.6,18.5c9.7,12.4,14.5,28.6,14.5,48.8c-0.2,20.4-5.1,36.8-14.7,49.1
				c-9.6,12.4-22.4,18.5-38.4,18.5H1239V113H1321.8z"/>
		</g>
		<g>
			<polygon class="st0" points="1846.8,236.7 2024.1,5 1846.9,5 1710,196.1 1710,5 1569,5 1569,561 1710,561 1710,415.5 1752.5,360 
				1869.5,561 2036.4,561 			"/>
		</g>
		<g>
			<path class="st0" d="M2437.6,307.3c-11.6-21.7-27.5-39.1-47-51.6c-17.7-11.4-37.5-20.2-58.9-26.2c-19.2-5.4-38.8-10.1-58.2-13.9
				c-18.2-3.7-35.4-7.7-51-11.9c-11.6-3.1-20.9-7.6-27.4-13.4c-1.3-1.1-5.1-4.5-5.1-17v0.1c0-10.9,3.6-17.8,12.4-23.7
				c11.9-8,31.3-12.2,56.2-12.2c15.4,0,31.6,2.9,48.1,8.7c17,5.9,34,15.1,50.7,27.2l26.8,19.4l70.4-119.6l-22.6-16
				c-26.4-18.7-54.7-33.1-84.1-42.8C2318.3,5,2288.3,0,2258.6,0c-64,0-115.1,15.4-151.8,45.8c-38.4,31.8-57.8,76.6-57.8,133.1v-0.1
				c0,34.5,6.3,63.2,18.7,85.3c12.5,22.4,29.5,39.8,50.5,52c18.8,10.9,39.7,19.1,62.1,24.2c20.1,4.6,40.1,8.4,59.5,11.5
				c16.6,2.8,32,6.1,45.9,10c10.1,2.8,18.1,7,23.7,12.4c3.1,3,4.6,8.5,4.6,16.6v-0.1c0,11.4-4,18.6-13.7,24.9
				c-13.3,8.6-33.8,12.9-61,12.9c-23.1,0-45.2-3.6-65.7-10.8c-20.2-7-38.6-17.6-54.9-31.3l-25.8-21.8l-77,115.8l20.8,17.3
				c18,15,37.9,27.7,59.2,37.8c21.2,10.1,44.1,17.8,68.3,22.9c23.9,5.1,49.2,7.7,75,7.7c65.6,0,118-15.1,155.7-44.9
				c39.9-31.5,60.1-76,60.1-132.3v-0.2C2455,356.3,2449.1,328.9,2437.6,307.3z"/>
		</g>
	</g>
</g>
<g id="Capa_2" class="st1">
</g>
</svg>
